<svg width="100" height="100" viewBox="0 0 100 100" xmlns="http://www.w3.org/2000/svg">
  <g fill="#94a3b8" fill-opacity="0.07">
    <!-- Apple/Fruit -->
    <path d="M30 25c0-5-4-9-9-9s-9 4-9 9c0 5 4 9 9 9s9-4 9-9z M28 20c0-1-1-2-2-2s-2 1-2 2 1 2 2 2 2-1 2-2z"/>
    <!-- Leaf/Vegetable -->
    <path d="M70 60c-5 0-9 4-9 9s4 9 9 9 9-4 9-9-4-9-9-9z M70 65c2 0 4 2 4 4s-2 4-4 4-4-2-4-4 2-4 4-4z"/>
    <!-- Carrot/Root -->
    <path d="M80 20l-5 15 2 2 15-5z M78 221"/>
    <!-- Simple Circle/Plate -->
    <circle cx="20" cy="80" r="5"/>
    <circle cx="50" cy="50" r="3"/>
  </g>
</svg>
